<svg width="106" height="106" viewBox="0 0 106 106" fill="none" xmlns="http://www.w3.org/2000/svg">
<path fill-rule="evenodd" clip-rule="evenodd" d="M52.5 30L52.5 4.37114e-08L53.5 0L53.5 30L52.5 30Z" fill="url(#paint0_linear_1_271)"/>
<path d="M48.8568 33.865C48.8568 31.6559 50.6476 29.865 52.8568 29.865H53.1432C55.3524 29.865 57.1432 31.6559 57.1432 33.865V41.4509H48.8568V33.865Z" fill="url(#paint1_linear_1_271)"/>
<circle cx="53" cy="51.6465" r="13.2805" fill="#F2C94C"/>
<circle cx="53" cy="49" r="34" fill="url(#paint2_radial_1_271)"/>
<ellipse cx="53" cy="47.3611" rx="10.2444" ry="8.99518" fill="url(#paint3_radial_1_271)"/>
<path d="M63.4442 56.5468C63.4442 59.8472 58.2834 64.4192 53.17 64.4192C48.0566 64.4192 42.5557 59.8472 42.5557 56.5467C42.5557 53.2463 48.0566 57.5484 53.17 57.5484C58.2834 57.5484 63.4442 53.2463 63.4442 56.5468Z" fill="url(#paint4_radial_1_271)"/>
<defs>
<linearGradient id="paint0_linear_1_271" x1="53.1224" y1="30" x2="64.7734" y2="5.54744" gradientUnits="userSpaceOnUse">
<stop offset="0.114583" stop-color="#242424"/>
<stop offset="0.492654" stop-color="#6E6962" stop-opacity="0.85"/>
<stop offset="0.869792" stop-color="#212121"/>
</linearGradient>
<linearGradient id="paint1_linear_1_271" x1="57.1432" y1="34.2393" x2="48.8568" y2="34.1452" gradientUnits="userSpaceOnUse">
<stop offset="0.114583" stop-color="#242424"/>
<stop offset="0.492654" stop-color="#6E6962" stop-opacity="0.85"/>
<stop offset="0.869792" stop-color="#212121"/>
</linearGradient>
<radialGradient id="paint2_radial_1_271" cx="0" cy="0" r="1" gradientUnits="userSpaceOnUse" gradientTransform="translate(53 49) rotate(90) scale(32.6052 34)">
<stop stop-color="#F2C94C" stop-opacity="0.7"/>
<stop offset="1" stop-color="#F2C94C" stop-opacity="0"/>
</radialGradient>
<radialGradient id="paint3_radial_1_271" cx="0" cy="0" r="1" gradientUnits="userSpaceOnUse" gradientTransform="translate(53 47.3611) rotate(43.0087) scale(9.06143 10.1627)">
<stop offset="0.328125" stop-color="#FEFBF1" stop-opacity="0.99"/>
<stop offset="1" stop-color="#FEFBF1" stop-opacity="0"/>
</radialGradient>
<radialGradient id="paint4_radial_1_271" cx="0" cy="0" r="1" gradientUnits="userSpaceOnUse" gradientTransform="translate(53.1834 60.8586) rotate(90) scale(6.56814 16.3409)">
<stop stop-color="#A6800C" stop-opacity="0.7"/>
<stop offset="1" stop-color="#D5A510" stop-opacity="0"/>
</radialGradient>
</defs>
</svg>
